<?xml version="1.0" encoding="UTF-8" standalone="no"?><svg xmlns="http://www.w3.org/2000/svg" xmlns:xlink="http://www.w3.org/1999/xlink" height="595" version="1.1" width="772"><defs/><g><g transform="translate(-30,-62) scale(1,1)"><rect fill="#ffffff" height="575" stroke="none" width="752" x="40" y="72"/></g><g transform="translate(-30,-62) scale(1,1)"><path d="M 40 72 L 792 72 L 792 647 L 40 647 L 40 72 Z Z" fill="none" stroke="#000000" stroke-miterlimit="10"/></g><g transform="translate(-30,-62) scale(1,1)"><rect fill="#C0C0C0" height="44" opacity="0.2" stroke="none" width="133.22998046875" x="231" y="231"/></g><g transform="translate(-30,-62) scale(1,1)"><rect fill="#ffffff" height="44" stroke="none" width="133.22998046875" x="224" y="224"/></g><g transform="translate(-30,-62) scale(1,1)"><path d="M 224 224 L 357.22998046875 224 L 357.22998046875 268 L 224 268 L 224 224 Z Z" fill="none" stroke="#000000" stroke-miterlimit="10"/></g><g transform="translate(-30,-62) scale(1,1)"><path d="M 224 249 L 357.22998046875 249" fill="none" stroke="#000000" stroke-miterlimit="10"/></g><g transform="translate(-30,-62) scale(1,1)"><path d="M 224 259 L 357.22998046875 259" fill="none" stroke="#000000" stroke-miterlimit="10"/></g><g transform="translate(-30,-62) scale(1,1)"><g><path fill="none" stroke="none"/><text fill="#000000" font-family="Arial" font-size="13px" font-style="normal" font-weight="bold" stroke="none" text-decoration="none" x="241.1064453125" y="243.5">LoginComponent</text></g></g><g transform="translate(-30,-62) scale(1,1)"><rect fill="#C0C0C0" height="44" opacity="0.2" stroke="none" width="133.22998046875" x="231" y="383"/></g><g transform="translate(-30,-62) scale(1,1)"><rect fill="#ffffff" height="44" stroke="none" width="133.22998046875" x="224" y="376"/></g><g transform="translate(-30,-62) scale(1,1)"><path d="M 224 376 L 357.22998046875 376 L 357.22998046875 420 L 224 420 L 224 376 Z Z" fill="none" stroke="#000000" stroke-miterlimit="10"/></g><g transform="translate(-30,-62) scale(1,1)"><path d="M 224 401 L 357.22998046875 401" fill="none" stroke="#000000" stroke-miterlimit="10"/></g><g transform="translate(-30,-62) scale(1,1)"><path d="M 224 411 L 357.22998046875 411" fill="none" stroke="#000000" stroke-miterlimit="10"/></g><g transform="translate(-30,-62) scale(1,1)"><g><path fill="none" stroke="none"/><text fill="#000000" font-family="Arial" font-size="13px" font-style="normal" font-weight="bold" stroke="none" text-decoration="none" x="232.806884765625" y="395.5">RegisterComponent</text></g></g><g transform="translate(-30,-62) scale(1,1)"><rect fill="#C0C0C0" height="88" opacity="0.2" stroke="none" width="244.22509765625" x="455" y="287"/></g><g transform="translate(-30,-62) scale(1,1)"><rect fill="#ffffff" height="88" stroke="none" width="244.22509765625" x="448" y="280"/></g><g transform="translate(-30,-62) scale(1,1)"><path d="M 448 280 L 692.22509765625 280 L 692.22509765625 368 L 448 368 L 448 280 Z Z" fill="none" stroke="#000000" stroke-miterlimit="10"/></g><g transform="translate(-30,-62) scale(1,1)"><path d="M 448 305 L 692.22509765625 305" fill="none" stroke="#000000" stroke-miterlimit="10"/></g><g transform="translate(-30,-62) scale(1,1)"><path d="M 448 328 L 692.22509765625 328" fill="none" stroke="#000000" stroke-miterlimit="10"/></g><g transform="translate(-30,-62) scale(1,1)"><g><path fill="none" stroke="none"/><text fill="#000000" font-family="Arial" font-size="13px" font-style="normal" font-weight="bold" stroke="none" text-decoration="none" x="550.60302734375" y="299.5">Router</text></g></g><g transform="translate(-30,-62) scale(1,1)"><g><path fill="none" stroke="none"/><text fill="#000000" font-family="Arial" font-size="13px" font-style="normal" font-weight="normal" stroke="none" text-decoration="none" x="453" y="322.5">-components</text><path d="M 453 322.5 L 528.14990234375 322.5" fill="none" stroke="#000000" stroke-miterlimit="10"/></g></g><g transform="translate(-30,-62) scale(1,1)"><g><path fill="none" stroke="none"/><text fill="#000000" font-family="Arial" font-size="13px" font-style="normal" font-weight="normal" stroke="none" text-decoration="none" x="453" y="345.5">+navigate(name)</text><path d="M 453 345.5 L 550.9189453125 345.5" fill="none" stroke="#000000" stroke-miterlimit="10"/></g></g><g transform="translate(-30,-62) scale(1,1)"><g><path fill="none" stroke="none"/><text fill="#000000" font-family="Arial" font-size="13px" font-style="normal" font-weight="normal" stroke="none" text-decoration="none" x="453" y="360.5">+addComponent(name, url, component)</text><path d="M 453 360.5 L 683.88330078125 360.5" fill="none" stroke="#000000" stroke-miterlimit="10"/></g></g><g transform="translate(-30,-62) scale(1,1)"><rect fill="#C0C0C0" height="44" opacity="0.2" stroke="none" width="133.22998046875" x="231" y="307"/></g><g transform="translate(-30,-62) scale(1,1)"><rect fill="#ffffff" height="44" stroke="none" width="133.22998046875" x="224" y="300"/></g><g transform="translate(-30,-62) scale(1,1)"><path d="M 224 300 L 357.22998046875 300 L 357.22998046875 344 L 224 344 L 224 300 Z Z" fill="none" stroke="#000000" stroke-miterlimit="10"/></g><g transform="translate(-30,-62) scale(1,1)"><path d="M 224 325 L 357.22998046875 325" fill="none" stroke="#000000" stroke-miterlimit="10"/></g><g transform="translate(-30,-62) scale(1,1)"><path d="M 224 335 L 357.22998046875 335" fill="none" stroke="#000000" stroke-miterlimit="10"/></g><g transform="translate(-30,-62) scale(1,1)"><g><path fill="none" stroke="none"/><text fill="#000000" font-family="Arial" font-size="13px" font-style="normal" font-weight="bold" stroke="none" text-decoration="none" x="239.671875" y="319.5">HomeComponent</text></g></g><g transform="translate(-30,-62) scale(1,1)"><path d="M 357 248 L 392 248 L 392 320 L 448 320" fill="none" stroke="#000000" stroke-miterlimit="10"/></g><g transform="translate(-30,-62) scale(1,1)"><path d="M 437.83732514237585 324.209517756016 L 448 320 L 437.83732514237585 315.790482243984 L 426 320" fill="#000000" stroke="none"/></g><g transform="translate(-30,-62) scale(1,1)"><path d="M 437.83732514237585 324.209517756016 L 448 320 L 437.83732514237585 315.790482243984 L 426 320 L 437.83732514237585 324.209517756016" fill="none" stroke="#000000" stroke-miterlimit="10"/></g><g transform="translate(-30,-62) scale(1,1)"><path d="M 357 320 L 448 320" fill="none" stroke="#000000" stroke-miterlimit="10"/></g><g transform="translate(-30,-62) scale(1,1)"><path d="M 437.83732514237585 324.209517756016 L 448 320 L 437.83732514237585 315.790482243984 L 426 320" fill="#000000" stroke="none"/></g><g transform="translate(-30,-62) scale(1,1)"><path d="M 437.83732514237585 324.209517756016 L 448 320 L 437.83732514237585 315.790482243984 L 426 320 L 437.83732514237585 324.209517756016" fill="none" stroke="#000000" stroke-miterlimit="10"/></g><g transform="translate(-30,-62) scale(1,1)"><path d="M 357 400 L 392 400 L 392 320 L 448 320" fill="none" stroke="#000000" stroke-miterlimit="10"/></g><g transform="translate(-30,-62) scale(1,1)"><path d="M 437.83732514237585 324.209517756016 L 448 320 L 437.83732514237585 315.790482243984 L 426 320" fill="#000000" stroke="none"/></g><g transform="translate(-30,-62) scale(1,1)"><path d="M 437.83732514237585 324.209517756016 L 448 320 L 437.83732514237585 315.790482243984 L 426 320 L 437.83732514237585 324.209517756016" fill="none" stroke="#000000" stroke-miterlimit="10"/></g><g transform="translate(-30,-62) scale(1,1)"><path d="M 260.639501953125 463 L 288.07950195312503 463 L 299.839501953125 474.76 L 299.839501953125 512 L 260.639501953125 512" fill="#C0C0C0" opacity="0.2" stroke="none"/></g><g transform="translate(-30,-62) scale(1,1)"><path d="M 253.63950195312498 456 L 281.07950195312503 456 L 292.839501953125 467.76 L 292.839501953125 505 L 253.63950195312498 505" fill="#ffffff" stroke="none"/></g><g transform="translate(-30,-62) scale(1,1)"><path d="M 253.63950195312498 456 L 281.07950195312503 456 L 292.839501953125 467.76 L 292.839501953125 505 L 253.63950195312498 505 L 253.63950195312498 456" fill="none" stroke="#000000" stroke-miterlimit="10"/></g><g transform="translate(-30,-62) scale(1,1)"><path d="M 281.07950195312503 456 L 281.07950195312503 467.76 L 292.839501953125 467.76 L 281.07950195312503 456" fill="none" stroke="#000000" stroke-miterlimit="10"/></g><g transform="translate(-30,-62) scale(1,1)"><g><path fill="none" stroke="none"/><text fill="#000000" font-family="Arial" font-size="13px" font-style="normal" font-weight="bold" stroke="none" text-decoration="none" x="251.200439453125" y="524.5">index.js</text><path d="M 297.443115234375 524.5 L 249.035888671875 524.5" fill="none" stroke="#000000" stroke-miterlimit="10"/></g></g><g transform="translate(-30,-62) scale(1,1)"><path d="M 330 488 L 560 488 L 560 368" fill="none" stroke="#ff00ff" stroke-dasharray="3" stroke-miterlimit="10"/></g><g transform="translate(-30,-62) scale(1,1)"><path d="M 564.209517756016 378.16267485762415 L 560 368 L 555.790482243984 378.16267485762415" fill="none" stroke="#ff00ff" stroke-miterlimit="10"/></g><g transform="translate(-30,-62) scale(1,1)"><g><path fill="none" stroke="none"/><text fill="#ff00ff" font-family="Arial" font-size="13px" font-style="normal" font-weight="normal" stroke="none" text-decoration="none" x="454.5" y="476.5">«use»</text></g></g><g transform="translate(-30,-62) scale(1,1)"><path d="M 216 488 L 160 488 L 160 248 L 224 248" fill="none" stroke="#ff00ff" stroke-dasharray="3" stroke-miterlimit="10"/></g><g transform="translate(-30,-62) scale(1,1)"><path d="M 213.83732514237585 252.209517756016 L 224 248 L 213.83732514237585 243.790482243984" fill="none" stroke="#ff00ff" stroke-miterlimit="10"/></g><g transform="translate(-30,-62) scale(1,1)"><path d="M 216 488 L 160 488 L 160 322 L 224 322" fill="none" stroke="#ff00ff" stroke-dasharray="3" stroke-miterlimit="10"/></g><g transform="translate(-30,-62) scale(1,1)"><path d="M 213.83732514237585 326.209517756016 L 224 322 L 213.83732514237585 317.790482243984" fill="none" stroke="#ff00ff" stroke-miterlimit="10"/></g><g transform="translate(-30,-62) scale(1,1)"><g><path fill="none" stroke="none"/><text fill="#ff00ff" font-family="Arial" font-size="13px" font-style="normal" font-weight="normal" stroke="none" text-decoration="none" x="69.5" y="372.5">«instanciate»</text></g></g><g transform="translate(-30,-62) scale(1,1)"><path d="M 216 489 L 160 489 L 160 400 L 224 400" fill="none" stroke="#ff00ff" stroke-dasharray="3" stroke-miterlimit="10"/></g><g transform="translate(-30,-62) scale(1,1)"><path d="M 213.83732514237585 404.209517756016 L 224 400 L 213.83732514237585 395.790482243984" fill="none" stroke="#ff00ff" stroke-miterlimit="10"/></g><g transform="translate(-30,-62) scale(1,1)"><path d="M 357 256 L 552 256 L 552 280" fill="none" stroke="#ff38ff" stroke-dasharray="3" stroke-miterlimit="10"/></g><g transform="translate(-30,-62) scale(1,1)"><path d="M 547.790482243984 269.83732514237585 L 552 280 L 556.209517756016 269.83732514237585" fill="none" stroke="#ff38ff" stroke-miterlimit="10"/></g><g transform="translate(-30,-62) scale(1,1)"><path d="M 357 328 L 400 328 L 400 256 L 552 256 L 552 280" fill="none" stroke="#ff38ff" stroke-dasharray="3" stroke-miterlimit="10"/></g><g transform="translate(-30,-62) scale(1,1)"><path d="M 547.790482243984 269.83732514237585 L 552 280 L 556.209517756016 269.83732514237585" fill="none" stroke="#ff38ff" stroke-miterlimit="10"/></g><g transform="translate(-30,-62) scale(1,1)"><path d="M 357 408 L 400 408 L 400 256 L 552 256 L 552 280" fill="none" stroke="#ff38ff" stroke-dasharray="3" stroke-miterlimit="10"/></g><g transform="translate(-30,-62) scale(1,1)"><path d="M 547.790482243984 269.83732514237585 L 552 280 L 556.209517756016 269.83732514237585" fill="none" stroke="#ff38ff" stroke-miterlimit="10"/></g><g transform="translate(-30,-62) scale(1,1)"><g><path fill="none" stroke="none"/><text fill="#ff00ff" font-family="Arial" font-size="13px" font-style="normal" font-weight="normal" stroke="none" text-decoration="none" x="445.0791015625" y="236.5">«use»</text></g></g><g transform="translate(-30,-62) scale(1,1)"><path d="M 160 568 L 388 568 L 398 578 L 398 607 L 160 607 L 160 568" fill="#ffff00" stroke="none"/></g><g transform="translate(-30,-62) scale(1,1)"><path d="M 160 568 L 388 568 L 398 578 L 398 607 L 160 607 L 160 568 L 160 568" fill="none" stroke="#000000" stroke-miterlimit="10"/></g><g transform="translate(-30,-62) scale(1,1)"><path d="M 388 568 L 388 578 L 398 578 L 388 568" fill="none" stroke="#000000" stroke-miterlimit="10"/></g><g transform="translate(-30,-62) scale(1,1)"><g><path fill="none" stroke="none"/><text fill="#000000" font-family="Arial" font-size="13px" font-style="normal" font-weight="normal" stroke="none" text-decoration="none" x="165" y="586">Entry point use Router for add a</text><text fill="#000000" font-family="Arial" font-size="13px" font-style="normal" font-weight="normal" stroke="none" text-decoration="none" x="165" y="599">components</text></g></g><g transform="translate(-30,-62) scale(1,1)"><path d="M 275 568 L 275 530" fill="none" stroke="#000000" stroke-dasharray="3" stroke-miterlimit="10"/></g><g transform="translate(-30,-62) scale(1,1)"><path d="M 608 480 L 746.4326171875 480 L 756.4326171875 490 L 756.4326171875 551 L 608 551 L 608 480" fill="#ffff00" stroke="none"/></g><g transform="translate(-30,-62) scale(1,1)"><path d="M 608 480 L 746.4326171875 480 L 756.4326171875 490 L 756.4326171875 551 L 608 551 L 608 480 L 608 480" fill="none" stroke="#000000" stroke-miterlimit="10"/></g><g transform="translate(-30,-62) scale(1,1)"><path d="M 746.4326171875 480 L 746.4326171875 490 L 756.4326171875 490 L 746.4326171875 480" fill="none" stroke="#000000" stroke-miterlimit="10"/></g><g transform="translate(-30,-62) scale(1,1)"><g><path fill="none" stroke="none"/><text fill="#000000" font-family="Arial" font-size="13px" font-style="normal" font-weight="normal" stroke="none" text-decoration="none" x="613" y="498">Router contain</text><text fill="#000000" font-family="Arial" font-size="13px" font-style="normal" font-weight="normal" stroke="none" text-decoration="none" x="613" y="511">components, he can</text><text fill="#000000" font-family="Arial" font-size="13px" font-style="normal" font-weight="normal" stroke="none" text-decoration="none" x="613" y="524">display a component for</text><text fill="#000000" font-family="Arial" font-size="13px" font-style="normal" font-weight="normal" stroke="none" text-decoration="none" x="613" y="537">a provided name</text></g></g><g transform="translate(-30,-62) scale(1,1)"><path d="M 648 480 L 648 368" fill="none" stroke="#000000" stroke-dasharray="3" stroke-miterlimit="10"/></g><g transform="translate(-30,-62) scale(1,1)"><path d="M 400 120 L 561.708984375 120 L 571.708984375 130 L 571.708984375 175 L 400 175 L 400 120" fill="#ffff00" stroke="none"/></g><g transform="translate(-30,-62) scale(1,1)"><path d="M 400 120 L 561.708984375 120 L 571.708984375 130 L 571.708984375 175 L 400 175 L 400 120 L 400 120" fill="none" stroke="#000000" stroke-miterlimit="10"/></g><g transform="translate(-30,-62) scale(1,1)"><path d="M 561.708984375 120 L 561.708984375 130 L 571.708984375 130 L 561.708984375 120" fill="none" stroke="#000000" stroke-miterlimit="10"/></g><g transform="translate(-30,-62) scale(1,1)"><g><path fill="none" stroke="none"/><text fill="#000000" font-family="Arial" font-size="13px" font-style="normal" font-weight="normal" stroke="none" text-decoration="none" x="405" y="138">Components use Router for</text><text fill="#000000" font-family="Arial" font-size="13px" font-style="normal" font-weight="normal" stroke="none" text-decoration="none" x="405" y="151">navigate to an other</text><text fill="#000000" font-family="Arial" font-size="13px" font-style="normal" font-weight="normal" stroke="none" text-decoration="none" x="405" y="164">component</text></g></g><g transform="translate(-30,-62) scale(1,1)"><path d="M 400 152 L 288 152 L 288 224" fill="none" stroke="#000000" stroke-dasharray="3" stroke-miterlimit="10"/></g><g transform="translate(-30,-62) scale(1,1)"><g><path fill="none" stroke="none"/><text fill="#000000" font-family="Arial" font-size="24px" font-style="normal" font-weight="normal" stroke="none" text-decoration="none" x="69" y="133">Routing</text></g></g></g></svg>